<?xml version="1.0" encoding="iso-8859-1"?>
<!-- Generator: Adobe Illustrator 18.0.0, SVG Export Plug-In . SVG Version: 6.00 Build 0)  -->
<!DOCTYPE svg PUBLIC "-//W3C//DTD SVG 1.1//EN" "http://www.w3.org/Graphics/SVG/1.1/DTD/svg11.dtd">
<svg version="1.1" id="Capa_1" xmlns="http://www.w3.org/2000/svg" xmlns:xlink="http://www.w3.org/1999/xlink" x="0px" y="0px"
	 viewBox="0 0 330.695 330.695" style="enable-background:new 0 0 330.695 330.695;" xml:space="preserve">
<g>
	<g>
		<path d="M63.942,36.158c-15.635,0-32.342,9.687-32.342,36.871c0,9.85,2.25,19.409,6.359,27.176l7.98,211.778
			c0.074,10.679,7.98,18.712,18.447,18.712c10.473,0,18.381-8.042,18.449-18.73l7.094-211.771c4.106-7.766,6.352-17.32,6.352-27.165
			C96.281,45.845,79.576,36.158,63.942,36.158z M53.18,105.748h21.555l-0.318,9.528H53.539L53.18,105.748z M63.942,51.158
			c11.506,0,17.34,7.358,17.34,21.871c0,6.41-1.227,12.545-3.463,17.719H50.065C47.826,85.574,46.6,79.439,46.6,73.029
			C46.6,58.517,52.434,51.158,63.942,51.158z M67.836,311.827c-0.227,2.587-1.291,3.815-3.449,3.868
			c-1.918,0.047-3.277-1.469-3.449-3.868c-0.006-0.094-6.834-181.551-6.834-181.551h19.811
			C73.914,130.276,67.842,311.743,67.836,311.827z"/>
		<path d="M233.086,24.952C218.971,9.328,194.156,0,166.709,0c-27.447,0-52.262,9.328-66.375,24.953
			c-2.291,2.537-2.521,6.208-0.807,8.975l-0.002,0.001l41.215,66.581l7.969,211.474c0.074,10.679,7.98,18.712,18.447,18.712
			c10.473,0,18.381-8.042,18.447-18.73l7.084-211.469l41.209-66.567l-0.004-0.003C235.608,31.159,235.377,27.488,233.086,24.952z
			 M155.949,105.748h21.555l-0.32,9.528h-20.875L155.949,105.748z M170.604,311.827c0,2.422-1.84,3.868-3.447,3.868
			c-1.631,0-3.449-1.446-3.449-3.868c0-0.094-6.834-181.551-6.834-181.551h19.809C176.682,130.276,170.604,311.743,170.604,311.827z
			 M181.082,90.748h-28.744l-36.887-59.59C127.24,21.095,146.274,15,166.709,15c20.438,0,39.471,6.095,51.262,16.158L181.082,90.748
			z"/>
		<path d="M299.086,40.518c0.123-2.433-0.943-4.773-2.859-6.277c-1.914-1.504-4.439-1.982-6.777-1.287L245.938,45.95
			c-3.383,1.011-5.604,4.243-5.332,7.763l3.465,44.946l8.039,213.324c0.074,10.679,7.98,18.712,18.447,18.712
			c10.473,0,18.381-8.042,18.449-18.73l7.15-213.434L299.086,40.518z M259.35,105.748h21.555l-0.318,9.528h-20.879L259.35,105.748z
			 M283.57,50.364l-2.041,40.384h-23.025l-2.479-32.156L283.57,50.364z M274.006,311.827c0,2.422-1.773,3.868-3.449,3.868
			c-1.656,0-3.449-1.446-3.449-3.868c0-0.094-6.834-181.551-6.834-181.551h19.809C280.082,130.276,274.006,311.743,274.006,311.827z
			"/>
	</g>
</g>
<g>
</g>
<g>
</g>
<g>
</g>
<g>
</g>
<g>
</g>
<g>
</g>
<g>
</g>
<g>
</g>
<g>
</g>
<g>
</g>
<g>
</g>
<g>
</g>
<g>
</g>
<g>
</g>
<g>
</g>
</svg>
